ply
format ascii 1.0
comment VTK generated PLY File
obj_info vtkPolyData points and polygons: vtk4.0
element vertex 34
property float x
property float y
property float z
element face 48
property list uchar int vertex_indices
end_header
0.5 0.2 0.3 
0.5 0.2 -0.2 
0.5 0.00865828 -0.16194 
0.85 0.2 -0.2 
0.85 0.00865828 -0.16194 
0.85 0.2 0.3 
0.5 -0.153553 -0.0535534 
0.85 -0.153553 -0.0535534 
0.5 -0.26194 0.108658 
0.85 -0.26194 0.108658 
0.5 -0.3 0.3 
0.85 -0.3 0.3 
0.5 -0.26194 0.491342 
0.85 -0.26194 0.491342 
0.5 -0.153553 0.653553 
0.85 -0.153553 0.653553 
0.5 0.00865828 0.76194 
0.85 0.00865828 0.76194 
0.5 0.2 0.8 
0.85 0.2 0.8 
0.5 0.391342 0.76194 
0.85 0.391342 0.76194 
0.5 0.553553 0.653553 
0.85 0.553553 0.653553 
0.5 0.66194 0.491342 
0.85 0.66194 0.491342 
0.5 0.7 0.3 
0.85 0.7 0.3 
0.5 0.66194 0.108658 
0.85 0.66194 0.108658 
0.5 0.553553 -0.0535534 
0.85 0.553553 -0.0535534 
0.5 0.391342 -0.16194 
0.85 0.391342 -0.16194 
3 0 1 2 
4 2 1 3 4 
3 5 4 3 
3 0 2 6 
4 6 2 4 7 
3 5 7 4 
3 0 6 8 
4 8 6 7 9 
3 5 9 7 
3 0 8 10 
4 10 8 9 11 
3 5 11 9 
3 0 10 12 
4 12 10 11 13 
3 5 13 11 
3 0 12 14 
4 14 12 13 15 
3 5 15 13 
3 0 14 16 
4 16 14 15 17 
3 5 17 15 
3 0 16 18 
4 18 16 17 19 
3 5 19 17 
3 0 18 20 
4 20 18 19 21 
3 5 21 19 
3 0 20 22 
4 22 20 21 23 
3 5 23 21 
3 0 22 24 
4 24 22 23 25 
3 5 25 23 
3 0 24 26 
4 26 24 25 27 
3 5 27 25 
3 0 26 28 
4 28 26 27 29 
3 5 29 27 
3 0 28 30 
4 30 28 29 31 
3 5 31 29 
3 0 30 32 
4 32 30 31 33 
3 5 33 31 
3 0 32 1 
4 1 32 33 3 
3 5 3 33 
